<svg xmlns="http://www.w3.org/2000/svg" width="1740" height="1915" style="shape-rendering:geometricPrecision;text-rendering:geometricPrecision;image-rendering:optimizeQuality;fill-rule:evenodd;clip-rule:evenodd"><path fill="#18306b" d="M612.5-.5h153c9.012 1.096 15.512 5.762 19.5 14a5632.915 5632.915 0 0 1 23 102c.5 1.167 1.333 2 2.5 2.5a1419.543 1419.543 0 0 1 57 17 3702.572 3702.572 0 0 0 76-69c12.037-5.565 23.371-4.231 34 4 39.33 28 78.67 56 118 84 8.5 6.491 11.66 14.991 9.5 25.5a4323.49 4323.49 0 0 1-41.5 96.5 511.085 511.085 0 0 1 36 48.5c34.66-2.776 69.33-6.443 104-11 9.93.543 17.1 5.209 21.5 14 15.8 48.396 31.8 96.729 48 145 2.02 6.737 2.35 13.403 1 20-1.4 3.402-3.57 6.236-6.5 8.5a12141.358 12141.358 0 0 0-90.5 53.5c.72 20.221.56 40.388-.5 60.5 30.17 17.586 60.5 34.92 91 52 7.35 6.569 10.19 14.735 8.5 24.5a6271.225 6271.225 0 0 1-46 147c-3.91 11.589-11.91 17.255-24 17a8130.174 8130.174 0 0 1-98-9l-4.5 1a359.964 359.964 0 0 1-35 48.5c14.3 30.758 28.46 61.592 42.5 92.5 1.9 12.63-1.93 23.13-11.5 31.5-38.51 28.09-76.84 56.42-115 85-10.419 7.31-21.419 8.31-33 3a3733.064 3733.064 0 0 0-77.5-68.5 341.708 341.708 0 0 1-57.5 19c-7.005 34.35-14.171 68.69-21.5 103-4.796 9.79-12.629 15.29-23.5 16.5-53.667.67-107.333.67-161 0-10.517-1.2-18.35-6.36-23.5-15.5a10983.7 10983.7 0 0 1-22.5-101c-31.057-5.7-60.057-16.7-87-33a486.638 486.638 0 0 1-.5-54c28.098 15.588 57.931 26.42 89.5 32.5 18.497 2.91 36.997 2.74 55.5-.5 28.798 13.26 58.965 17.76 90.5 13.5 36.156-3.83 70.156-14.5 102-32 30.182-19.542 49.682-46.708 58.5-81.5 1.393-7.006 1.559-14.006.5-21 42.412 1.363 69.912-18.303 82.5-59 8.724-31.551 7.891-62.884-2.5-94 .719-2.228 2.052-4.061 4-5.5 28.394-19.677 59.39-25.011 93-16a586.772 586.772 0 0 1 23 6.5 3.595 3.595 0 0 0 1.5-1c40.73-130.913 21.73-252.246-57-364C926.595 233.896 805.762 178.729 655.5 187a302.781 302.781 0 0 0-52 9c101.178 7.103 191.845 41.27 272 102.5 16.317 28.607 25.317 59.274 27 92-44.319-27.659-90.985-50.826-140-69.5-69.455-23.021-140.789-35.687-214-38a8913.66 8913.66 0 0 1-51.5-2.5c-6.211 1.458-12.378 1.291-18.5-.5l-1.5-1.5a1147.938 1147.938 0 0 1-1.5-67l1-64a670.097 670.097 0 0 1 87-30 5775.46 5775.46 0 0 0 24.5-104c5.936-8.714 14.103-13.38 24.5-14Z" style="opacity:.99"/><path fill="#18306b" d="M477.5 295.5c70.317-.669 139.65 7.165 208 23.5a359.345 359.345 0 0 1 31 9.5c-9.698 8.721-16.365 19.388-20 32l-2 1a742.372 742.372 0 0 0-146-32.5 4278.299 4278.299 0 0 0-71-8c-3.972-8.499-3.972-16.999 0-25.5Z" style="opacity:.962"/><path fill="#18306b" d="M900.5 321.5c46.97 11.553 86.47 35.22 118.5 71 26.02 32.405 37.35 69.405 34 111-2.08 19.324-9.91 35.824-23.5 49.5a81.664 81.664 0 0 1-13 8c-7.82 2.173-10.65-.661-8.5-8.5 13.05-16.493 13.38-33.493 1-51-16.212-16.867-35.378-29.367-57.5-37.5a299.698 299.698 0 0 0-39-13.5c8.336-32.788 7.836-65.455-1.5-98a338.65 338.65 0 0 0-10.5-31Z" style="opacity:.978"/><path fill="#18306b" d="M477.5 333.5a1547.593 1547.593 0 0 1 156 24.5 304.278 304.278 0 0 1 37 10.5c-3.227 12.088-3.56 24.255-1 36.5l-1 2.5a1469.654 1469.654 0 0 0-189-41.5c-2.038-1.236-3.205-3.069-3.5-5.5-2.239-9.189-1.739-18.189 1.5-27Z" style="opacity:.964"/><path fill="#18306b" d="M746.5 335.5c25.795-2.675 42.295 8.325 49.5 33 2.542 25.77-8.624 41.937-33.5 48.5-25.222 1.984-41.055-9.183-47.5-33.5-2.039-24.425 8.461-40.425 31.5-48Zm21 19c10.409-.908 15.576 3.759 15.5 14-3.874 8.736-10.041 10.902-18.5 6.5-6.54-7.729-5.54-14.563 3-20.5Z" style="opacity:.96"/><path fill="#18306b" d="M815.5 365.5a820.033 820.033 0 0 1 88 40 78.352 78.352 0 0 1-.5 21 574.47 574.47 0 0 1-10.5 46c-39.831-13.937-80.831-19.104-123-15.5a755.956 755.956 0 0 0-44 6c-33.035-20.241-47.201-49.741-42.5-88.5.388-.928 1.055-1.595 2-2a62.62 62.62 0 0 0 10.5 3c1.888 27.384 15.722 45.717 41.5 55 27.398 7.089 50.065-.244 68-22 9.004-13.017 12.504-27.35 10.5-43Z" style="opacity:.966"/><path fill="#18306b" d="M478.5 382.5a1711.975 1711.975 0 0 1 195 39.5c7.656 18.316 18.323 34.65 32 49-10.526 2.439-21.193 3.106-32 2a622.772 622.772 0 0 1-96-21 5411.797 5411.797 0 0 1-98-30c-2.104-2.042-3.271-4.542-3.5-7.5-1.961-9.339-1.961-18.673 0-28a16.58 16.58 0 0 1 2.5-4Z" style="opacity:.972"/><path fill="#18306b" d="M481.5 440.5a7404.777 7404.777 0 0 0 116 30.5 951.466 951.466 0 0 0 76 14 241.82 241.82 0 0 0-30 22l-60 1a13381.798 13381.798 0 0 0-103 6c-2.961-6.445-4.794-13.278-5.5-20.5a167.393 167.393 0 0 1 0-44c.873-4.025 3.039-7.025 6.5-9Z" style="opacity:.97"/><path fill="#18306b" d="M908.5 463.5a679.212 679.212 0 0 1 34 11.5c4.54 14.548 1.873 27.881-8 40-6.621.312-13.288.978-20 2-3.337.665-6.003 2.331-8 5a458.877 458.877 0 0 1 22.5 56.5c3.998 11.607 4.331 23.273 1 35-1.251 2.881-3.417 4.714-6.5 5.5a174.81 174.81 0 0 1-28 2.5 60.03 60.03 0 0 1-2 13.5 32.364 32.364 0 0 1 4 5.5c-2.731 6.043-7.397 9.71-14 11 2.8 4.647 3.633 9.647 2.5 15-7.988 3.406-15.488 7.406-22.5 12-43.387-8.219-65.72-34.385-67-78.5.415-34.004 14.582-60.504 42.5-79.5a408.815 408.815 0 0 0 21.5 7.5c.457.414.791.914 1 1.5-4.99 2.719-10.324 4.553-16 5.5 9.339 2.834 18.672 5.668 28 8.5 1.697-.864 2.863-2.197 3.5-4a20.683 20.683 0 0 0-.5-9c5.551.285 10.217-1.548 14-5.5l-4.5-1.5a38.463 38.463 0 0 1-14.5.5 360.26 360.26 0 0 1-25-7.5c15.089-12.116 32.422-18.116 52-18 3.344-11.694 6.677-23.361 10-35Z" style="opacity:.976"/><path fill="#18306b" d="M770.5 469.5c39.4-2.383 77.733 2.784 115 15.5-49.524 3.548-84.024 28.048-103.5 73.5-1.73-21.292-12.564-35.792-32.5-43.5a166.343 166.343 0 0 0-37-7 547.967 547.967 0 0 0-53-1.5c13.679-11.01 29.012-19.176 46-24.5 21.343-6.554 43.01-10.721 65-12.5Z" style="opacity:.96"/><path fill="#18306b" d="M580.5 518.5a3958.7 3958.7 0 0 1 89 .5 590.164 590.164 0 0 1 47 3c-19.537 14.314-25.037 32.814-16.5 55.5a124.062 124.062 0 0 0 7.5 11c-49.317-9.914-99.317-16.081-150-18.5a901.533 901.533 0 0 0-64.5-.5 57.344 57.344 0 0 1-14.5-1.5c-6.107-12.21-6.607-24.71-1.5-37.5l3.5-3.5a1531.048 1531.048 0 0 1 100-8.5Z" style="opacity:.975"/><path fill="#18306b" d="M736.5 528.5c22.931 1.763 33.431 14.097 31.5 37-5.674 17.764-17.84 25.264-36.5 22.5-18.207-6.574-25.373-19.407-21.5-38.5 4.868-12.038 13.701-19.038 26.5-21Zm-1 16c9.999-.17 15.999 4.663 18 14.5-3.634 13.487-11.634 17.153-24 11-8.139-10.967-6.139-19.467 6-25.5Z" style="opacity:.925"/><path fill="#18306b" d="M730.5 553.5a73.133 73.133 0 0 1 17 1c1.578 3.437 1.245 6.604-1 9.5a64.218 64.218 0 0 1-16 0c-1.297-3.499-1.297-6.999 0-10.5Z" style="opacity:.857"/><path fill="#18306b" d="M776.5 577.5c.997-.03 1.664.47 2 1.5-2.024 22.209 2.476 43.043 13.5 62.5a202.24 202.24 0 0 1 10.5 16c-1.544 1.946-3.544 2.446-6 1.5-20.374-15.379-35.041-35.046-44-59 10.765-4.599 18.765-12.099 24-22.5Z" style="opacity:.905"/><path fill="#18306b" d="M511.5 580.5a865.283 865.283 0 0 1 106 5.5c-44.703 20.846-87.703 44.512-129 71-4.281 2.109-8.448 1.942-12.5-.5a1155.672 1155.672 0 0 1 0-68 11.532 11.532 0 0 1 3.5-4.5 435.426 435.426 0 0 1 32-3.5Z" style="opacity:.963"/><path fill="#18306b" d="M625.5 586.5c6.334.75 12.667 1.584 19 2.5-38.18 42.547-72.347 88.047-102.5 136.5a6319.158 6319.158 0 0 0-56 91c-1.726 1.076-3.559 1.243-5.5.5-4.291-5.082-7.124-10.916-8.5-17.5-7.744-32.205-8.411-64.538-2-97 2.935-12.067 9.435-21.567 19.5-28.5a4895.386 4895.386 0 0 1 136-87.5Z" style="opacity:.971"/><path fill="#18306b" d="M659.5 591.5c6.955.268 13.621 1.601 20 4-34.978 83.916-56.145 171.249-63.5 262a1907.261 1907.261 0 0 0-6.5 118c-33.754 2.311-66.754-1.522-99-11.5-17.706-6.393-31.873-17.227-42.5-32.5a69.481 69.481 0 0 1-5.5-12.5c51.676-118.289 117.342-227.456 197-327.5Z" style="opacity:.984"/><path fill="#18306b" d="M691.5 597.5c10.662 1.998 21.328 3.998 32 6-4.283 42.344-2.116 84.344 6.5 126 16.002 72.108 56.169 125.774 120.5 161-6.488 41.326-29.155 69.826-68 85.5-42.87 16.175-86.87 20.008-132 11.5-6.952-89.974-4.119-179.64 8.5-269 5.693-41.778 16.527-82.111 32.5-121Z" style="opacity:.987"/><path fill="#18306b" d="M728.5 605.5h6c5.978 33.955 20.478 63.621 43.5 89 19.629 22.06 43.129 38.56 70.5 49.5 29.448 10.828 58.448 9.828 87-3 1.444-.781 2.777-.614 4 .5a50.788 50.788 0 0 1 4.5 15c2.242 35.381-7.425 67.048-29 95-7.103 8.716-16.103 14.383-27 17-36.395-9.362-66.728-28.362-91-57-48.458-59.875-71.292-128.542-68.5-206Z" style="opacity:.979"/><path fill="#18306b" d="M740.5 606.5c3.398-.32 6.732.013 10 1 10.829 29.984 29.829 53.151 57 69.5 18.559 9.512 38.226 13.512 59 12a166.21 166.21 0 0 0 26 16 153.033 153.033 0 0 0 31 5c2.254 1.054 2.587 2.554 1 4.5-23.19 19.145-49.19 23.979-78 14.5-45.577-18.575-78.41-50.408-98.5-95.5a116.052 116.052 0 0 1-7.5-27Z" style="opacity:.949"/><path fill="#18306b" d="M979.5 1261.5c3.277 2.29 5.944 5.29 8 9-2.667 3.67-5.333 7.33-8 11-4.667 1.33-9.333 1.33-14 0a199.776 199.776 0 0 0 14-20Z" style="opacity:.842"/><path fill="#18306b" d="M1097.5 1291.5c14.3.04 26.8 4.71 37.5 14-.01 12.11-1.01 24.11-3 36-3.61-4.74-7.78-8.9-12.5-12.5-17.31-10.22-31.81-7.05-43.5 9.5-9.98 19.81-9.65 39.47 1 59 9.38 12.85 21.55 16.52 36.5 11 1-6.63 1.33-13.3 1-20h-20v-29h46c.17 23 0 46-.5 69-22.13 16.35-45.3 18.18-69.5 5.5-12.11-9.46-20.28-21.62-24.5-36.5-6.32-22.22-5.65-44.22 2-66 8.97-22.82 25.47-36.15 49.5-40Z" style="opacity:.964"/><path fill="#18306b" d="M565.5 1292.5c15.985-2.13 30.152 1.87 42.5 12a420.29 420.29 0 0 1 0 41c-5.973-8.31-13.473-14.81-22.5-19.5-10.913-4.06-20.413-1.9-28.5 6.5-13.939 21.06-14.939 42.73-3 65 10.592 13.06 23.425 15.56 38.5 7.5a138.564 138.564 0 0 0 15.5-12.5 342.33 342.33 0 0 1 0 37c-16.861 14.25-35.361 16.75-55.5 7.5-18.522-12.51-29.356-30.01-32.5-52.5-4.035-25.16.632-48.49 14-70 8.072-10.94 18.572-18.27 31.5-22Z" style="opacity:.958"/><path fill="#18306b" d="M778.5 1292.5c19.03-2.16 34.53 4.17 46.5 19 17.365 26.59 21.699 55.25 13 86-5.621 19.44-17.454 33.6-35.5 42.5-20.852 6.16-38.352.99-52.5-15.5-19.136-28.07-23.47-58.4-13-91 7.171-20.67 21.004-34.34 41.5-41Zm6 32c14.519 1.68 23.685 9.68 27.5 24 4.601 17.02 2.935 33.35-5 49-7.52 11.62-17.687 14.78-30.5 9.5-8.02-5.85-13.187-13.69-15.5-23.5-3.548-15.51-1.882-30.51 5-45 4.394-7.25 10.561-11.92 18.5-14Z" style="opacity:.959"/><path fill="#18306b" d="M968.5 1292.5c25.594-1.23 43.76 9.77 54.5 33 12.45 30.97 11.11 61.31-4 91-20.426 29.32-45.26 33.82-74.5 13.5-16.045-17.78-24.045-38.78-24-63 .05-24.41 8.384-45.41 25-63 6.948-5.47 14.615-9.31 23-11.5Zm5 32c9.734-.05 17.234 3.95 22.5 12 11.57 21.23 11.24 42.23-1 63-8.42 10.55-18.587 12.72-30.5 6.5-11.179-10.21-16.512-23.05-16-38.5-.384-15.03 4.616-27.86 15-38.5 3.315-1.83 6.649-3.33 10-4.5Z" style="opacity:.96"/><path fill="#18306b" d="M1249.5 1292.5c15.87-2.2 29.87 1.8 42 12 1.17 13.65 1.33 27.32.5 41a96.131 96.131 0 0 0-16.5-16.5c-18.76-9.52-32.59-4.69-41.5 14.5-6.76 18.15-5.76 35.81 3 53 7.96 11.77 18.8 15.6 32.5 11.5 8.6-3.55 16.1-8.72 22.5-15.5.67 12.33.67 24.67 0 37-19.09 15.5-39.26 17-60.5 4.5-17.56-14.61-27.06-33.44-28.5-56.5-2.12-20.94 1.88-40.61 12-59 8.43-12.94 19.93-21.61 34.5-26Z" style="opacity:.955"/><path fill="#18306b" d="M1346.5 1292.5c24.37-1.57 42.21 8.43 53.5 30 13.94 31.23 13.27 62.23-2 93-18.42 28.23-42.25 34.06-71.5 17.5-15.61-14.39-24.45-32.23-26.5-53.5-3.39-27.45 3.61-51.78 21-73 7.34-6.92 15.84-11.58 25.5-14Zm5 32c15.49 1.31 24.99 9.64 28.5 25 5.12 18.62 2.45 35.95-8 52-12.59 11.16-24.59 10.49-36-2-12.24-20.77-12.57-41.77-1-63 4.29-5.8 9.79-9.8 16.5-12Z" style="opacity:.962"/><path fill="#18306b" d="M328.5 1296.5h95v31h-34v111h-26v-111h-35v-31Z" style="opacity:.964"/><path fill="#18306b" d="M438.5 1296.5h68v30h-42v25h25v29h-25v27h42v31h-67c.288-47.35-.045-94.68-1-142Z" style="opacity:.969"/><path fill="#18306b" d="M624.5 1296.5c2.948-.28 5.781.06 8.5 1l61 75c.5-25.33.667-50.66.5-76h25v142c-3.507.51-6.674-.16-9.5-2a3125.526 3125.526 0 0 0-60-73c-.5 25-.667 50-.5 75h-24c.277-47.34-.056-94.68-1-142Z" style="opacity:.958"/><path fill="#18306b" d="M854.5 1296.5h27v110h42v32h-69v-142Z" style="opacity:.942"/><path fill="#18306b" d="M1161.5 1296.5h27v142h-27v-142Z" style="opacity:.944"/><path fill="#18306b" d="M1309.5 1491.5c1.05-.15 2.05.02 3 .5 1.48 2.44 3.31 4.61 5.5 6.5-.54 2.89-2.04 5.39-4.5 7.5-5 .67-10 .67-15 0 4.29-4.44 7.96-9.28 11-14.5Z" style="opacity:.85"/><path fill="#18306b" d="M264.5 1508.5c15.332-1.42 28.999 2.58 41 12a280.693 280.693 0 0 1 .5 41c-8.219-12.23-19.552-19.56-34-22-16.084 3.11-25.751 12.78-29 29-3.47 15.13-1.47 29.47 6 43 8.596 12.2 20.096 16.03 34.5 11.5 8.854-3.19 16.354-8.35 22.5-15.5a342.33 342.33 0 0 1 0 37c-19.779 15.47-40.612 16.97-62.5 4.5-17.206-13.23-27.039-30.73-29.5-52.5-2.797-21.22.87-41.22 11-60 9.368-14.91 22.535-24.25 39.5-28Z" style="opacity:.96"/><path fill="#18306b" d="M422.5 1508.5c28.914.41 48.247 14.24 58 41.5 10.519 31.69 6.352 61.19-12.5 88.5-20.354 21.25-43.188 24.42-68.5 9.5-19.683-17-29.35-38.67-29-65-.116-24.75 8.551-45.75 26-63 7.908-5.79 16.575-9.63 26-11.5Zm4 32c14.863 2.02 24.363 10.35 28.5 25 4.928 17.43 2.594 33.76-7 49-9.091 10.66-19.924 12.83-32.5 6.5-11.16-10.13-16.493-22.79-16-38-.208-13.71 4.125-25.71 13-36 4.392-3.03 9.059-5.2 14-6.5Z" style="opacity:.959"/><path fill="#18306b" d="M1572.5 1510.5c16.13-1.76 30.3 2.57 42.5 13 .67 13.33.67 26.67 0 40a68.657 68.657 0 0 0-17.5-16.5c-16.35-8.93-29.85-5.76-40.5 9.5-10.78 20.97-9.78 41.3 3 61 12.77 12.01 26.6 13.18 41.5 3.5 4.77-2.93 9.1-6.43 13-10.5 1.33 12.33 1.33 24.67 0 37-33.38 21.11-60.88 15.11-82.5-18-14-29.67-14-59.33 0-89 9.36-15.75 22.86-25.75 40.5-30Z" style="opacity:.958"/><path fill="#18306b" d="M1739.5 1570.5v29c-2.71 19.58-11.37 36.08-26 49.5-21 14-42 14-63 0-18.01-17.38-27.01-38.71-27-64-.02-23.61 7.98-43.94 24-61 23-18 46-18 69 0 12.37 13.23 20.03 28.73 23 46.5Zm-59-28c14.13 1.62 23.3 9.29 27.5 23 5.77 17.95 3.77 34.95-6 51-14.02 14.89-27.68 14.55-41-1-10.89-19.5-11.22-39.17-1-59 5-7.57 11.83-12.23 20.5-14Z" style="opacity:.962"/><path fill="#18306b" d="M-.5 1513.5c2.747-.31 5.414.02 8 1 21.167 24.33 42.333 48.67 63.5 73 .5-24.66.667-49.33.5-74h26v139c-5.666 1.22-10.166-.44-13.5-5l-59-69c-.5 24.66-.667 49.33-.5 74h-25v-139Z" style="opacity:.967"/><path fill="#18306b" d="M159.5 1513.5c2.894-.46 5.394.21 7.5 2a11870.92 11870.92 0 0 0 53.5 136 225.94 225.94 0 0 1-30 1 156.882 156.882 0 0 0-6-19c-15-1.33-30-1.33-45 0l-7 18a98.744 98.744 0 0 1-28 0c18.346-46.02 36.68-92.02 55-138Zm2 54a2688.02 2688.02 0 0 1 14 39.5c-9.333.67-18.667.67-28 0a927.921 927.921 0 0 0 14-39.5Z" style="opacity:.956"/><path fill="#18306b" d="M328.5 1513.5h28v139h-28v-139ZM496.5 1513.5c4.103-.73 7.603.27 10.5 3 20.333 23.67 40.667 47.33 61 71 .5-24.66.667-49.33.5-74h26v139c-2.687.16-5.354 0-8-.5a3262.17 3262.17 0 0 1-63.5-72.5c-.5 24.33-.667 48.66-.5 73h-26v-139Z" style="opacity:.957"/><path fill="#18306b" d="M657.5 1513.5c2.292-.26 4.459.08 6.5 1a11671.18 11671.18 0 0 1 53.5 138c-9.69.33-19.356 0-29-1a619.997 619.997 0 0 1-7-18.5c-14.996-.5-29.996-.67-45-.5l-6 20c-9.672.17-19.339 0-29-.5 18.535-46.23 37.201-92.4 56-138.5Zm1 54c5.633 12.89 10.299 26.23 14 40-9.025.33-18.025 0-27-1a915.539 915.539 0 0 0 13-39Z" style="opacity:.956"/><path fill="#18306b" d="M725.5 1513.5h28v109h43v30h-71v-139ZM877.5 1513.5c14.337-.17 28.671 0 43 .5 30.016 5.01 47.849 22.51 53.5 52.5 2.778 17.11 1.112 33.77-5 50-9.419 19.75-24.919 31.58-46.5 35.5-14.996.5-29.996.67-45 .5v-139Zm27 30c26.944-.56 41.278 12.61 43 39.5-1.7 26.87-16.033 40.03-43 39.5v-79Z" style="opacity:.971"/><path fill="#18306b" d="M989.5 1513.5h70v29h-43v24h28v30h-28v26h44v30h-71v-139Z" style="opacity:.969"/><path fill="#18306b" d="M1149.5 1515.5c2.29-.26 4.46.08 6.5 1 12.73 27.79 25.73 55.45 39 83 12.59-27.59 25.09-55.26 37.5-83 2.19-1.27 4.36-1.27 6.5 0 7.72 46.31 15.22 92.64 22.5 139h-27a724.515 724.515 0 0 0-9.5-61c-8.67 20-17.33 40-26 60-3 1.33-6 1.33-9 0-9.14-20.42-18.47-40.75-28-61-3.79 20.22-7.13 40.56-10 61-8.44 1.32-16.94 1.32-25.5 0 7.99-46.27 15.66-92.61 23-139Z" style="opacity:.954"/><path fill="#18306b" d="M1272.5 1515.5h70v29h-43v25h26v29h-26v27h44v30h-71v-140Z" style="opacity:.978"/><path fill="#18306b" d="M1359.5 1515.5c9.36-.33 18.69 0 28 1 7.17 12.33 14.33 24.67 21.5 37 7.29-12.42 14.46-24.92 21.5-37.5 10.33-.67 20.67-.67 31 0a3018.836 3018.836 0 0 0-36 64c14.53 24.9 29.2 49.73 44 74.5a154.008 154.008 0 0 1-35 0c-8.63-15.13-17.47-30.13-26.5-45-8.12 15.41-16.62 30.58-25.5 45.5-9.99.5-19.99.67-30 .5 13.04-24.4 26.37-48.73 40-73a3147.575 3147.575 0 0 1-33-67Z" style="opacity:.953"/><path fill="#18306b" d="M1482.5 1515.5h27v140h-27v-140Z" style="opacity:.995"/><style>
path {
    fill: #000;
}

@media (prefers-color-scheme: dark) {
    path {
        fill: #fff;
    }
}

</style></svg>


